# xmcd
#
# Track frame offsets:
#	150
#	18174
#	33924
#	47920
#	66319
#	78571
#	94998
#	111081
#	128975
#	145106
#	168545
#	186095
#	204182
#	221245
#	240418
#	258188
#
# Disc length: 3671 seconds
#
# Revision: 1
# Processed by: cddbd v1.5.2PL0 Copyright (c) Steve Scherf et al.
# Submitted via: audiograbber 1.83.01
#
DISCID=e00e5510
DTITLE=JonesTM - HC200739
DYEAR=2007
DGENRE=Country
TTITLE0=Collin Raye - Quitters
TTITLE1=Jeff Griffith - I'm Your Radio
TTITLE2=Gene Watson - I Buried Our Love
TTITLE3=Martina McBride - For These Times [Radio Version]
TTITLE4=Billy Joe Shaver With Marty Stuart - Winning Again
TTITLE5=Stephen Cochran - Everything We Knew [Radio Edit]
TTITLE6=Kelly Willis - The More That I'm Around You [Album Version]
TTITLE7=Jaheim - Never
TTITLE8=Jill Scott - Hate On Me [Album Version]
TTITLE9=Rahsaan Patterson - Stop Breaking My Heart
TTITLE10=Carl Thomas - Late Night Rendezvous
TTITLE11=Sakai - I Like [Album Mix]
TTITLE12=Chieli Minucci and Special EFX - Sweet Surrender
TTITLE13=Jose Feliciano - Baker's Thing
TTITLE14=Boney James - Gonna Get It
TTITLE15=Everette Harp - Old School
EXTD=
EXTT0=
EXTT1=
EXTT2=
EXTT3=
EXTT4=
EXTT5=
EXTT6=
EXTT7=
EXTT8=
EXTT9=
EXTT10=
EXTT11=
EXTT12=
EXTT13=
EXTT14=
EXTT15=
PLAYORDER=
